<svg width="236" height="69" viewBox="0 0 236 69" fill="none" xmlns="http://www.w3.org/2000/svg">
<path d="M0 40.5996C0 23.6996 11.1 13.0996 25.8 13.0996C38.9 13.0996 48.2 20.6996 50.6 33.3996H38.2C36.1 26.6996 32.2 24.0996 25.8 24.0996C18.1 24.0996 12.4 30.5996 12.4 40.5996C12.4 50.7996 18.1 57.2996 25.8 57.2996C32.4 57.2996 36.1 54.6996 38.2 47.8996H50.6C48.2 60.5996 38.9 68.2996 25.8 68.2996C11.1 68.2996 0 57.5996 0 40.5996Z" fill="#F88101"/>
<path d="M87.0999 24.8001C79.4999 24.8001 73.7998 29.9001 73.7998 38.6001V66.7002H61.7998V14.7001H73.7998V22.4001H73.9998C77.3998 16.0001 84.2998 12.1001 91.6998 14.7001V25.4001C90.0998 25.0001 88.4999 24.8001 87.0999 24.8001Z" fill="#F88101"/>
<path d="M123.5 57.2996C129 57.2996 132.5 55.4996 134.7 50.8996H147.6C144.3 61.7996 135.5 68.2996 123.5 68.2996C110.3 68.2996 100 59.6996 98 45.4996H110.7C112.2 52.8996 117.1 57.2996 123.5 57.2996ZM123.5 13.0996C136.6 13.0996 148.3 20.5996 148.3 40.0996V45.4996H110.7V35.4996H135.9C134.6 26.6996 129.9 24.0996 123.5 24.0996C117.2 24.0996 112.3 28.3996 110.7 35.4996H98.1C100.1 21.5996 110.4 13.0996 123.5 13.0996Z" fill="#F88101"/>
<path d="M180.2 57.8996C185.4 57.8996 189.5 55.9996 189.5 52.2996C189.5 49.0996 184.7 47.5996 179 45.8996C170.3 43.2996 159.4 39.9996 159.4 28.7996C159.4 20.7996 166.7 13.0996 179.1 13.0996C191.2 13.0996 198 18.6996 199.6 30.0996H187.9C187.9 25.6996 183.9 23.5996 179.4 23.5996C175.4 23.5996 171.8 25.0996 171.8 28.1996C171.8 31.8996 177 33.5996 183.1 35.4996C191.5 38.0996 201.4 41.3996 201.4 51.5996C201.4 61.5996 193.5 68.2996 180 68.2996C167.7 68.2996 158.4 61.5996 157.7 49.1996H169.4C169.4 55.9996 174.8 57.8996 180.2 57.8996Z" fill="#F88101"/>
<path d="M210.9 4L222.9 0V14.7H210.9V4ZM222.9 50.4C222.9 56.3 226.4 57.6 230.4 57.6C232 57.6 233.7 57.4 235.3 57.2V67.5C232.9 67.9 230.1 68.3 227.3 68.3C219.2 68.3 210.9 65.4 210.9 53.4V25.7H222.9V50.4ZM222.9 14.7H235.3V25.7H222.9V14.7Z" fill="#F88101"/>
</svg>
